<?xml version="1.0" encoding="utf-8"?>
<!-- Generator: Adobe Illustrator 16.0.0, SVG Export Plug-In . SVG Version: 6.00 Build 0)  -->
<!DOCTYPE svg PUBLIC "-//W3C//DTD SVG 1.1//EN" "http://www.w3.org/Graphics/SVG/1.1/DTD/svg11.dtd">
<svg version="1.1" id="Layer_1" xmlns="http://www.w3.org/2000/svg" xmlns:xlink="http://www.w3.org/1999/xlink" x="0px" y="0px"
	 width="75px" height="75px" viewBox="0 0 75 75" enable-background="new 0 0 75 75" xml:space="preserve">
<rect x="23.717" y="11.616" fill="#81DFEF" width="26.019" height="44.207"/>
<polygon fill="#8EEFAC" points="53.062,32.066 55.434,32.351 55.355,30.988 55.187,28.479 53.062,28.754 53.061,28.754 "/>
<g>
	<defs>
		<path id="SVGID_1_" d="M22.738,51.476V10.771h27.707v45.896h-27.51L22.738,51.476z M21.15,9.032l-0.845,0.409l-2.957,3.489
			l3.147,53.037h0.06h0.086h0.123h0.157h0.191h0.225h0.257h0.287h0.318h0.346h0.374h0.401h0.426h0.451h0.474h0.498h0.517h0.539
			h0.558h0.577h0.594h0.61h0.626h0.64h0.652h0.663h0.676h0.687h0.695h0.702h0.709h0.715h0.72h0.723h0.727h0.727h0.729h0.728h0.726
			h0.724h0.72h0.716h0.71h0.701h0.695h0.687h0.675h0.665h0.653h0.641h0.626h0.609h0.594H50.4h0.559h0.539h0.519h0.498h0.475h0.453
			h0.427h0.4h0.374h0.348h0.317h0.288h0.257h0.226h0.193c0.433,0,0.865,0.007,1.299-0.016c0.016-0.001,0.062,0.001,0.073-0.012
			c0.01-0.017,0.004-0.053,0.004-0.066c0.001-0.052,0.002-0.105,0.002-0.158c0.001-0.104,0.001-0.208,0.001-0.313
			c-0.001-0.198-0.009-0.398-0.027-0.598c-0.105-1.096-2.016-30.175-2.016-30.175c-0.272-0.035-3.471,0.005-3.471,0.005l0.076-7.992
			l0.843-0.285c0.099-0.028,2.018-0.557,2.018-0.557l0.227-0.235l-0.707-15.17l-1.537-1.229l-0.843-0.135H21.15z"/>
	</defs>
	<clipPath id="SVGID_2_">
		<use xlink:href="#SVGID_1_"  overflow="visible"/>
	</clipPath>
	
		<linearGradient id="SVGID_3_" gradientUnits="userSpaceOnUse" x1="4.882813e-004" y1="75" x2="1.0005" y2="75" gradientTransform="matrix(40.3033 0 0 -40.3033 17.3438 3060.2449)">
		<stop  offset="0" style="stop-color:#F4A2C3"/>
		<stop  offset="1" style="stop-color:#AFAAF2"/>
	</linearGradient>
	<rect x="17.348" y="9.032" clip-path="url(#SVGID_2_)" fill="url(#SVGID_3_)" width="40.306" height="56.941"/>
</g>
<g>
	<defs>
		<rect id="SVGID_4_" width="75" height="75"/>
	</defs>
	<clipPath id="SVGID_5_">
		<use xlink:href="#SVGID_4_"  overflow="visible"/>
	</clipPath>
	<polygon clip-path="url(#SVGID_5_)" fill="#3F4040" points="31.836,25.509 31.836,38.415 41.615,31.962 	"/>
</g>
</svg>
