<?xml version="1.0" encoding="utf-8"?>
<!-- Generator: Adobe Illustrator 16.0.0, SVG Export Plug-In . SVG Version: 6.00 Build 0)  -->
<!DOCTYPE svg PUBLIC "-//W3C//DTD SVG 1.1//EN" "http://www.w3.org/Graphics/SVG/1.1/DTD/svg11.dtd">
<svg version="1.1" id="Layer_1" xmlns="http://www.w3.org/2000/svg" xmlns:xlink="http://www.w3.org/1999/xlink" x="0px" y="0px"
	 width="75px" height="75px" viewBox="0 0 75 75" enable-background="new 0 0 75 75" xml:space="preserve">
<g>
	<defs>
		<rect id="SVGID_1_" width="75" height="75"/>
	</defs>
	<clipPath id="SVGID_2_">
		<use xlink:href="#SVGID_1_"  overflow="visible"/>
	</clipPath>
	<path clip-path="url(#SVGID_2_)" fill="#3F4040" d="M16.2,40.524c-0.299,0.928-3.413,1.688-3.413,1.688s-2.06,0.167-4.18-1.176
		c-0.836-0.529-1.212-1.213-1.598-2.017c-0.604-1.257-0.866-2.713-0.866-2.713S5.563,33.2,7.72,29.771
		c2.155-3.43,5.424-2.962,5.424-2.962s-0.363-1.399-0.357-2.746c0,0-3.524,0.191-5.526,2.251c-2.578,2.651-2.766,3.638-3.018,7.191
		c-0.277,3.931,1.9,7.213,1.9,7.213s3.571,3.4,6.587,2.486C15.748,42.291,16.2,40.524,16.2,40.524"/>
</g>
<g>
	<defs>
		<path id="SVGID_3_" d="M24.746,42.199c0.214,0.005,0.33-0.013,0.33-0.013C24.965,42.192,24.856,42.196,24.746,42.199
			 M10.615,30.657c-1.502,0.645-2.215,6.826-0.611,7.562c1.584,0.728,6.45,4.238,14.742,3.98c-1.32-0.034-6.385-0.942-11.137-12.248
			C13.609,29.951,12.117,30.012,10.615,30.657"/>
	</defs>
	<clipPath id="SVGID_4_">
		<use xlink:href="#SVGID_3_"  overflow="visible"/>
	</clipPath>
	
		<linearGradient id="SVGID_5_" gradientUnits="userSpaceOnUse" x1="0" y1="74.9922" x2="1" y2="74.9922" gradientTransform="matrix(15.9825 0 0 -15.9825 9.0938 1234.762)">
		<stop  offset="0" style="stop-color:#F4A2C3"/>
		<stop  offset="1" style="stop-color:#AFAAF2"/>
	</linearGradient>
	<rect x="8.4" y="29.951" clip-path="url(#SVGID_4_)" fill="url(#SVGID_5_)" width="16.676" height="12.506"/>
</g>
<g>
	<defs>
		<rect id="SVGID_6_" width="75" height="75"/>
	</defs>
	<clipPath id="SVGID_7_">
		<use xlink:href="#SVGID_6_"  overflow="visible"/>
	</clipPath>
	<path clip-path="url(#SVGID_7_)" fill="none" stroke="#CDCCCB" stroke-width="0.692" stroke-miterlimit="10" d="M30.21,21.199
		c0.004,0.493-0.296,0.895-0.669,0.897l-2.431,0.017c-0.373,0.002-0.677-0.395-0.68-0.888c-0.004-0.493,0.296-0.894,0.669-0.897
		l2.43-0.017C29.902,20.309,30.207,20.706,30.21,21.199z"/>
	<path clip-path="url(#SVGID_7_)" fill="#81DFEF" d="M12.733,26.441c0,0-1.211-8.108,3.954-12.224c0,0,4.616-4.822,11.804-3.244
		c7.188,1.578,10.071,8.418,10.472,10.555c0.401,2.138,0.859,9.719-2.846,15.266c-3.706,5.547-8.616,6.451-8.616,6.451
		s-4.548,1.404-8.316-3.269C15.418,35.303,13.167,31.155,12.733,26.441"/>
	<path clip-path="url(#SVGID_7_)" fill="#FFFFFF" d="M19.014,26.254c0.094-6.217,4.049-11.2,8.834-11.128
		c4.785,0.072,8.589,5.17,8.496,11.388c-0.094,6.218-4.049,11.2-8.834,11.128C22.725,37.57,18.921,32.472,19.014,26.254"/>
	<path clip-path="url(#SVGID_7_)" fill="#3F4040" d="M25.974,20.22c-0.024,0.493,0.243,0.906,0.597,0.924l2.309,0.117
		c0.355,0.018,0.661-0.367,0.686-0.859c0.024-0.493-0.242-0.906-0.597-0.924l-2.308-0.116C26.306,19.344,25.998,19.728,25.974,20.22
		"/>
	<path clip-path="url(#SVGID_7_)" fill="#3F4040" d="M58.923,61.16c0.208,0.947,3.085,1.939,3.085,1.939s1.932,0.323,4.038-0.856
		c0.831-0.465,1.24-1.116,1.668-1.89c0.67-1.207,1.033-2.639,1.033-2.639s0.795-3.054-0.966-6.635
		c-1.76-3.582-4.882-3.362-4.882-3.362s0.453-1.367,0.555-2.71c0,0,3.311,0.456,5.035,2.661c2.22,2.837,2.319,3.834,2.273,7.396
		c-0.051,3.939-2.365,7.046-2.365,7.046s-3.641,3.121-6.413,1.983C59.21,62.956,58.923,61.16,58.923,61.16"/>
</g>
<g>
	<defs>
		<path id="SVGID_8_" d="M50.727,62.185c-0.103-0.012-0.205-0.023-0.31-0.036C50.417,62.148,50.525,62.174,50.727,62.185
			 M50.727,62.185c7.804,0.884,12.674-2.25,14.226-2.855c1.573-0.613,1.392-6.826,0.026-7.583c-1.364-0.757-2.769-0.93-2.769-0.93
			C56.826,61.729,51.974,62.251,50.727,62.185"/>
	</defs>
	<clipPath id="SVGID_9_">
		<use xlink:href="#SVGID_8_"  overflow="visible"/>
	</clipPath>
	
		<linearGradient id="SVGID_10_" gradientUnits="userSpaceOnUse" x1="4.882813e-004" y1="74.9766" x2="1.0005" y2="74.9766" gradientTransform="matrix(15.651 0 0 -15.651 50.4141 1230.3995)">
		<stop  offset="0" style="stop-color:#F4A2C3"/>
		<stop  offset="1" style="stop-color:#AFAAF2"/>
	</linearGradient>
	<rect x="50.417" y="50.816" clip-path="url(#SVGID_9_)" fill="url(#SVGID_10_)" width="16.108" height="12.252"/>
</g>
<g>
	<defs>
		<rect id="SVGID_11_" width="75" height="75"/>
	</defs>
	<clipPath id="SVGID_12_">
		<use xlink:href="#SVGID_11_"  overflow="visible"/>
	</clipPath>
	<path clip-path="url(#SVGID_12_)" fill="none" stroke="#CDCCCB" stroke-width="0.673" stroke-miterlimit="10" d="M47.244,40.84
		c-0.042,0.491,0.209,0.914,0.562,0.944l2.292,0.2c0.351,0.03,0.67-0.343,0.712-0.834c0.042-0.49-0.208-0.914-0.56-0.943l-2.292-0.2
		C47.606,39.976,47.287,40.349,47.244,40.84z"/>
	<path clip-path="url(#SVGID_12_)" fill="#81DFEF" d="M63.371,47.386c0,0,1.788-7.991-2.758-12.483c0,0-3.97-5.155-10.877-4.123
		c-6.907,1.031-10.172,7.631-10.72,9.731c-0.549,2.101-1.585,9.623,1.468,15.432c3.055,5.811,7.616,7.081,7.616,7.081
		s4.179,1.741,8.104-2.633C60.132,56.017,62.586,52.052,63.371,47.386"/>
	<path clip-path="url(#SVGID_12_)" fill="#FFFFFF" d="M57.405,46.724c0.407-6.205-2.927-11.469-7.447-11.758
		c-4.521-0.29-8.516,4.506-8.923,10.711s2.927,11.469,7.447,11.758S56.998,52.929,57.405,46.724"/>
	<path clip-path="url(#SVGID_12_)" fill="#3F4040" d="M51.319,40.184c-0.016,0.493-0.301,0.885-0.637,0.876l-2.188-0.058
		c-0.336-0.009-0.595-0.415-0.579-0.907c0.017-0.493,0.301-0.885,0.637-0.876l2.188,0.058
		C51.076,39.285,51.337,39.691,51.319,40.184"/>
</g>
</svg>
